<?xml version="1.0" standalone="no"?>
<!DOCTYPE svg PUBLIC "-//W3C//DTD SVG 20010904//EN"
 "http://www.w3.org/TR/2001/REC-SVG-20010904/DTD/svg10.dtd">
<svg version="1.0" xmlns="http://www.w3.org/2000/svg"
 width="513.000000pt" height="511.000000pt" viewBox="0 0 513.000000 511.000000"
 preserveAspectRatio="xMidYMid meet">
<metadata>
Created by potrace 1.16, written by Peter Selinger 2001-2019
</metadata>
<g transform="translate(0.000000,511.000000) scale(0.100000,-0.100000)"
fill="#000000" stroke="none">
<path d="M1057 4052 l-1007 -1007 2 -1483 3 -1482 2490 2490 2490 2490 -1485
0 -1485 0 -1008 -1008z m2237 713 c81 -21 132 -54 209 -134 144 -148 168 -304
71 -457 -41 -64 -86 -104 -160 -140 -51 -25 -71 -29 -144 -29 -74 0 -93 4
-145 29 -113 56 -226 185 -259 296 -21 70 -20 105 3 179 36 116 134 214 251
252 69 22 100 23 174 4z m-482 -620 c53 -115 126 -274 161 -352 l66 -143 -51
-55 c-27 -30 -56 -55 -62 -55 -7 0 -123 49 -257 108 -134 60 -295 130 -356
157 -62 27 -113 51 -113 55 0 3 29 34 64 69 l64 64 39 -16 c21 -8 76 -33 123
-55 47 -22 133 -63 192 -90 l106 -50 -18 42 c-10 22 -57 121 -104 220 -47 98
-86 183 -86 189 0 16 123 138 130 129 4 -4 50 -101 102 -217z m-521 -477 c31
-14 85 -53 120 -86 l64 -61 -184 -184 -184 -185 34 -17 c88 -46 166 -37 222
25 46 50 53 87 31 157 l-18 56 50 44 c59 53 94 69 106 51 4 -7 17 -38 29 -68
47 -124 8 -262 -104 -366 -84 -78 -132 -98 -242 -98 -83 -1 -95 2 -153 32 -86
45 -180 141 -223 228 -31 62 -34 77 -34 154 0 73 4 93 28 142 35 72 128 159
199 187 73 29 182 25 259 -11z m-436 -698 l260 -260 -58 -57 c-50 -51 -59 -56
-76 -46 -17 11 -20 8 -26 -25 -22 -119 -148 -225 -270 -226 -93 -1 -127 22
-350 237 l-200 194 59 61 c33 34 63 62 69 62 5 0 91 -79 191 -177 99 -97 195
-182 213 -190 28 -11 38 -11 71 3 31 12 45 26 67 70 45 89 37 105 -173 317
l-176 177 59 60 c33 33 64 60 70 60 5 0 127 -117 270 -260z m-665 -475 l355
-355 -65 -65 -65 -65 -365 70 c-201 38 -378 72 -395 76 -25 5 13 -37 208 -233
l237 -238 -64 -64 -65 -64 -78 71 c-43 39 -206 199 -363 356 l-285 286 65 64
65 65 385 -74 c212 -41 392 -75 400 -75 8 0 -93 105 -225 234 l-240 234 65 66
c35 36 67 66 70 66 3 0 165 -160 360 -355z"/>
<path d="M3107 4582 c-105 -70 -103 -191 6 -309 99 -108 218 -130 300 -55 25
22 47 77 47 116 -1 75 -99 204 -186 245 -55 26 -129 27 -167 3z"/>
<path d="M2034 3498 c-62 -55 -79 -120 -48 -193 l16 -38 114 114 c63 62 114
115 114 117 0 10 -77 32 -114 32 -37 0 -52 -6 -82 -32z"/>
</g>
</svg>
